<?xml version="1.0" standalone="no"?>
<!DOCTYPE svg PUBLIC "-//W3C//DTD SVG 20010904//EN"
 "http://www.w3.org/TR/2001/REC-SVG-20010904/DTD/svg10.dtd">
<svg version="1.0" xmlns="http://www.w3.org/2000/svg"
 width="434.000000pt" height="434.000000pt" viewBox="0 0 434.000000 434.000000"
 preserveAspectRatio="xMidYMid meet">

<g transform="translate(0.000000,434.000000) scale(0.100000,-0.100000)"
fill="#000000" stroke="none">
<path d="M0 2170 l0 -2170 2170 0 2170 0 0 2170 0 2170 -2170 0 -2170 0 0
-2170z m2547 2116 c428 -90 773 -283 1094 -612 97 -99 214 -238 267 -317 34
-51 80 -132 55 -97 -187 259 -449 533 -638 667 -360 256 -717 373 -1138 373
-221 0 -467 -37 -632 -95 -17 -6 -18 -5 -3 4 34 22 207 70 309 85 161 24 162
24 369 21 162 -3 215 -8 317 -29z m-1137 -136 c-8 -5 -19 -10 -25 -10 -5 0 -3
5 5 10 8 5 20 10 25 10 6 0 3 -5 -5 -10z m-50 -20 c-8 -5 -19 -10 -25 -10 -5
0 -3 5 5 10 8 5 20 10 25 10 6 0 3 -5 -5 -10z m481 -117 c5 -13 6 -23 3 -23
-7 0 -50 97 -58 130 -6 23 34 -55 55 -107z m534 47 c40 -6 43 -7 15 -8 -19 0
-60 3 -90 8 -48 6 -50 7 -15 8 22 0 63 -3 90 -8z m-408 -6 c-3 -3 -12 -4 -19
-1 -8 3 -5 6 6 6 11 1 17 -2 13 -5z m703 -84 c210 -68 429 -185 593 -317 103
-83 80 -82 -30 1 -186 140 -355 229 -568 297 -125 40 -167 59 -134 59 9 0 71
-18 139 -40z m-905 10 c-11 -4 -67 -23 -124 -41 -57 -18 -170 -65 -250 -106
-80 -40 -135 -64 -121 -53 72 59 424 208 490 209 23 0 23 -1 5 -9z m2070 -139
c-7 -6 -75 60 -75 73 0 6 18 -7 40 -29 22 -21 37 -41 35 -44z m-1344 1 c217
-51 442 -155 612 -282 59 -45 107 -85 107 -90 0 -5 -35 16 -77 48 -175 129
-312 202 -492 262 -274 92 -561 103 -835 34 -156 -40 -348 -120 -471 -198 -72
-46 -75 -48 -75 -42 0 9 106 74 191 117 165 83 324 137 479 165 115 20 449 12
561 -14z m-1896 -42 c21 -22 37 -40 34 -40 -3 0 -23 18 -44 40 -21 22 -37 40
-34 40 3 0 23 -18 44 -40z m1736 26 c296 -37 554 -144 833 -345 251 -181 497
-543 590 -864 54 -189 41 -183 -20 8 -84 265 -249 533 -445 721 -156 149 -438
317 -652 389 -207 69 -480 94 -684 61 -271 -43 -651 -222 -855 -404 -95 -84
-105 -87 -23 -6 184 180 476 338 754 409 177 45 319 53 502 31z m3 -265 c8
-12 2 -13 -29 -8 -20 3 -45 13 -55 22 -23 21 -119 21 -134 -1 -8 -10 -24 -14
-48 -12 l-35 3 79 113 80 113 67 -108 c37 -59 71 -114 75 -122z m-413 97 l82
-103 -32 -9 c-27 -8 -34 -6 -46 11 l-14 20 -61 -21 c-43 -15 -62 -27 -66 -42
-6 -24 -74 -52 -74 -30 0 24 114 276 125 276 3 0 42 -46 86 -102z m575 77 c3
-7 -4 -47 -14 -88 l-20 -76 82 -27 c44 -15 83 -28 85 -30 2 -2 -3 -12 -13 -23
-16 -18 -19 -18 -74 -1 -31 10 -76 23 -98 29 -62 17 -62 16 -13 202 8 32 12
36 35 31 14 -2 28 -10 30 -17z m-1976 -20 c13 -14 21 -25 18 -25 -2 0 -15 11
-28 25 -13 14 -21 25 -18 25 2 0 15 -11 28 -25z m420 -91 c41 -42 66 -72 55
-66 -26 14 -152 142 -139 142 5 0 43 -34 84 -76z m-70 -71 l75 -78 -77 75
c-43 41 -78 76 -78 77 0 8 11 -3 80 -74z m703 55 c91 -152 90 -150 76 -163
-19 -17 -178 -100 -183 -94 -2 2 -26 45 -54 94 -31 54 -47 94 -42 99 21 21
147 86 167 86 13 0 28 -10 36 -22z m1317 -28 l29 -21 -50 -77 c-27 -42 -49
-80 -49 -84 0 -3 16 -16 36 -27 20 -12 34 -24 31 -27 -3 -4 -21 4 -39 17 -18
13 -37 24 -43 24 -21 1 -56 17 -53 25 7 17 103 190 106 190 2 0 17 -9 32 -20z
m730 -23 c0 -1 -28 -29 -62 -62 l-63 -60 60 63 c55 58 65 67 65 59z m-2840
-42 c19 -19 32 -35 29 -35 -3 0 -20 16 -39 35 -19 19 -32 35 -29 35 3 0 20
-16 39 -35z m1901 -21 c39 -20 36 -50 -5 -47 -37 3 -47 13 -40 41 7 26 7 26
45 6z m-1341 -140 c48 -50 50 -54 15 -27 -51 40 -117 109 -90 95 11 -6 45 -36
75 -68z m1740 73 c0 -1 -24 -25 -52 -52 l-53 -50 50 53 c46 48 55 57 55 49z
m-1831 -221 c2 -6 -24 14 -58 44 -33 29 -61 57 -61 63 0 10 112 -91 119 -107z
m1804 6 c61 -52 229 -233 222 -240 -2 -2 12 -25 32 -50 48 -64 146 -269 177
-372 29 -99 52 -216 61 -312 l7 -68 119 0 c75 0 119 -4 119 -10 0 -7 -43 -10
-122 -8 l-123 3 -8 60 c-28 214 -68 356 -141 509 -108 228 -197 344 -401 524
-72 64 -24 34 58 -36z m32 27 l20 -23 -30 21 c-16 11 -39 31 -50 44 l-20 23
30 -21 c17 -11 39 -31 50 -44z m-2497 -17 c40 -30 70 -57 67 -60 -6 -6 -68 37
-125 89 -57 51 -36 41 58 -29z m3061 33 c28 -33 36 -45 28 -45 -2 0 -21 18
-42 40 -21 22 -34 40 -28 40 6 0 25 -16 42 -35z m-429 22 c0 -2 -19 -21 -42
-42 l-43 -40 40 43 c36 39 45 47 45 39z m-1850 -10 c0 -2 -19 -18 -42 -36
l-43 -32 39 35 c37 34 46 40 46 33z m2400 -48 c-47 -42 -100 -76 -70 -46 19
20 104 86 110 86 3 0 -15 -18 -40 -40z m-1610 12 c0 -14 -76 -64 -307 -201
-170 -100 -312 -187 -318 -192 -13 -14 36 14 355 204 233 139 265 155 268 137
2 -11 1 -26 -1 -33 -3 -7 -92 -63 -199 -124 -346 -200 -623 -367 -622 -377 1
-5 41 -32 90 -60 82 -47 113 -75 82 -75 -20 0 -251 134 -251 145 0 6 57 44
127 86 70 42 130 80 134 84 8 10 -59 -28 -187 -106 -89 -54 -121 -63 -121 -35
0 11 924 566 942 566 4 0 8 -9 8 -19z m114 -33 c98 -56 479 -280 718 -422
l147 -88 1 -461 c0 -253 -2 -458 -5 -456 -3 3 -6 207 -7 452 -2 377 -5 447
-16 442 -8 -3 -42 12 -76 33 -83 52 -86 54 -86 48 0 -2 31 -24 70 -47 l70 -43
-48 -31 c-108 -67 -201 -110 -212 -99 -9 9 12 25 79 64 50 28 91 55 91 59 0 8
-364 228 -667 402 -149 86 -163 96 -163 121 0 34 1 34 48 5 44 -28 98 -55 69
-35 -10 7 -40 27 -65 43 -40 26 -68 65 -46 65 3 0 48 -23 98 -52z m-994 -2 c0
-2 -8 -10 -17 -17 -16 -13 -17 -12 -4 4 13 16 21 21 21 13z m2548 -274 c35
-73 63 -135 61 -137 -2 -2 -41 69 -86 158 -45 89 -73 151 -61 137 12 -14 50
-85 86 -158z m-2773 120 c-3 -3 -16 5 -28 17 l-22 23 28 -17 c15 -10 25 -20
22 -23z m2235 13 c7 -8 8 -15 2 -15 -5 0 -15 7 -22 15 -7 8 -8 15 -2 15 5 0
15 -7 22 -15z m-80 -207 c85 -131 159 -312 175 -423 3 -22 -6 -2 -19 45 -39
137 -80 225 -213 453 -2 4 -2 7 0 7 3 0 29 -37 57 -82z m-1052 35 c-5 -30
-592 -363 -609 -346 -14 14 8 29 201 138 96 54 225 127 285 161 61 35 114 63
118 63 5 1 7 -7 5 -16z m205 -80 c223 -125 431 -244 436 -249 3 -2 0 -9 -5
-14 -13 -13 -608 322 -612 344 -2 9 -1 16 2 16 4 0 84 -44 179 -97z m-2052
-239 c43 -21 78 -39 76 -41 -2 -2 -42 14 -88 36 -46 22 -80 40 -76 40 4 1 44
-15 88 -35z m3799 26 c-8 -5 -19 -10 -25 -10 -5 0 -3 5 5 10 8 5 20 10 25 10
6 0 3 -5 -5 -10z m-70 -29 c-19 -10 -46 -21 -60 -25 -14 -3 -2 5 25 18 58 29
87 34 35 7z m-1882 -335 l-3 -86 -140 76 c-77 41 -143 79 -148 83 -4 4 59 43
140 88 l148 80 3 -78 c1 -43 1 -116 0 -163z m175 154 c75 -41 137 -77 137 -80
0 -7 -261 -144 -282 -148 -17 -3 -18 10 -18 153 0 124 3 156 13 153 7 -2 75
-37 150 -78z m1064 -37 c-3 -10 -5 -4 -5 12 0 17 2 24 5 18 2 -7 2 -21 0 -30z
m-2087 -268 c1 -154 4 -289 6 -301 5 -20 8 -19 77 17 69 37 107 48 107 32 0
-8 -180 -103 -193 -103 -4 0 -7 145 -7 322 0 177 2 319 5 317 2 -3 5 -131 5
-284z m2097 208 c-3 -10 -5 -4 -5 12 0 17 2 24 5 18 2 -7 2 -21 0 -30z m291
-90 c-21 -2 -55 -2 -75 0 -21 2 -4 4 37 4 41 0 58 -2 38 -4z m-2923 -33 c-3
-6 -52 -10 -110 -10 -58 0 -107 4 -110 10 -4 6 35 10 110 10 75 0 114 -4 110
-10z m230 -157 c3 -32 20 -98 36 -146 170 -512 593 -858 1079 -883 131 -7 225
4 355 41 179 51 349 151 490 286 47 45 85 79 85 75 0 -4 -21 -32 -47 -63 -59
-68 -213 -185 -311 -236 -308 -162 -683 -168 -997 -18 -136 65 -211 117 -321
223 -135 131 -230 269 -307 449 -53 122 -101 329 -78 329 5 0 12 -26 16 -57z
m995 -163 c140 -70 185 -100 150 -100 -19 0 -330 160 -330 170 0 18 19 11 180
-70z m504 71 c6 -9 -294 -171 -315 -171 -5 0 -9 6 -9 13 0 12 283 166 307 167
6 0 14 -4 17 -9z m531 -175 c10 -7 14 -16 9 -19 -6 -3 -46 13 -89 35 -106 53
-127 67 -120 79 6 8 156 -62 200 -95z m-235 70 c0 -20 -557 -326 -593 -326
-37 0 -10 19 131 95 81 44 215 117 297 162 83 45 153 83 158 83 4 0 7 -6 7
-14z m-1008 -125 c128 -71 259 -142 291 -157 31 -15 57 -32 57 -36 0 -20 -47
-1 -210 86 -316 169 -424 236 -381 236 5 0 115 -58 243 -129z m-792 74 c0 -5
-5 -3 -10 5 -5 8 -10 20 -10 25 0 6 5 3 10 -5 5 -8 10 -19 10 -25z m115 -227
c69 -106 186 -248 268 -325 40 -37 61 -59 47 -48 -94 73 -235 234 -325 373
-44 69 -106 192 -104 209 0 5 15 -24 34 -64 18 -40 55 -105 80 -145z m2023
201 c-6 -18 -841 -489 -940 -531 -13 -5 -18 -3 -18 7 0 8 27 28 60 45 51 26
238 130 780 436 94 53 125 65 118 43z m-1748 -82 c52 -29 214 -121 360 -203
146 -83 298 -168 337 -190 95 -51 98 -77 3 -29 -60 30 -269 148 -699 392 -92
52 -131 83 -104 83 4 0 51 -24 103 -53z m-506 -407 c32 -47 88 -116 125 -154
36 -37 55 -61 41 -52 -35 21 -132 135 -192 224 -48 72 -138 241 -138 258 1 5
24 -36 53 -91 29 -56 78 -139 111 -185z m1256 198 c-45 -37 -182 -100 -192
-90 -7 7 1 16 22 27 17 9 65 34 107 56 77 40 109 44 63 7z m238 -84 c-5 -15
-23 -9 -112 40 -49 27 -86 53 -86 62 0 11 28 0 101 -39 55 -30 99 -58 97 -63z
m1027 -75 c28 -28 41 -47 30 -41 -26 14 -102 92 -89 92 5 0 32 -23 59 -51z
m-2235 6 c13 -14 21 -25 18 -25 -2 0 -15 11 -28 25 -13 14 -21 25 -18 25 2 0
15 -11 28 -25z m118 -154 c-7 -9 -31 -36 -55 -61 l-43 -45 60 -49 c33 -26 60
-52 60 -57 0 -4 -9 -13 -20 -19 -17 -9 -32 -1 -99 52 -44 35 -80 66 -80 70 -1
4 32 43 72 87 l72 79 22 -20 c18 -17 20 -24 11 -37z m2031 -58 c2 -2 2 -5 0
-8 -3 -2 -32 24 -65 58 l-59 62 60 -55 c33 -30 62 -56 64 -57z m-190 -63 c9
-1 26 -6 39 -13 l23 -13 -24 -22 -23 -22 -113 40 c-62 21 -115 41 -118 44 -10
10 38 26 64 21 79 -17 73 -20 73 32 0 35 6 53 23 71 l22 24 9 -81 c7 -64 12
-81 25 -81z m-1589 73 c0 -7 -61 31 -73 46 -7 8 7 2 31 -14 23 -15 42 -30 42
-32z m50 -29 c0 -2 -9 0 -20 6 -11 6 -20 13 -20 16 0 2 9 0 20 -6 11 -6 20
-13 20 -16z m2101 -31 c13 -16 12 -17 -3 -4 -10 7 -18 15 -18 17 0 8 8 3 21
-13z m-2177 -12 c17 -19 15 -23 -43 -110 -34 -50 -65 -91 -69 -91 -4 0 -18 9
-31 19 l-24 18 44 54 c24 30 55 71 69 92 29 43 31 43 54 18z m278 -42 c43 -16
108 -35 145 -44 63 -14 64 -15 17 -10 -56 6 -203 53 -250 79 -16 10 -20 14 -9
10 11 -4 55 -20 97 -35z m1036 -13 c13 -24 41 -70 62 -103 39 -58 39 -58 17
-70 -12 -7 -27 -12 -33 -13 -6 0 -36 43 -68 96 l-57 95 23 19 c13 11 25 19 28
20 3 0 16 -20 28 -44z m-1152 -112 l-44 -82 64 -27 c74 -31 78 -36 61 -59 -12
-17 -19 -15 -105 20 -51 21 -92 43 -92 50 0 8 23 56 50 108 l51 94 29 -11 29
-11 -43 -82z m707 69 c-7 -2 -19 -2 -25 0 -7 3 -2 5 12 5 14 0 19 -2 13 -5z
m-134 -19 c8 -7 -132 -2 -189 6 -36 5 -13 6 65 3 66 -3 122 -7 124 -9z m74 9
c-13 -2 -33 -2 -45 0 -13 2 -3 4 22 4 25 0 35 -2 23 -4z m250 -103 c16 -44 32
-82 37 -85 5 -3 33 6 63 19 l55 24 11 -25 c6 -13 11 -25 11 -27 0 -6 -181 -69
-185 -64 -3 2 -22 51 -44 109 l-39 104 21 12 c12 7 27 12 32 13 6 0 23 -36 38
-80z m-578 -52 c26 -51 57 -108 67 -125 l20 -33 -39 0 c-35 0 -41 4 -55 34
-14 29 -22 34 -65 40 -40 5 -51 3 -64 -13 -13 -16 -19 -17 -41 -7 l-26 11 70
93 c38 50 73 92 77 92 4 0 29 -42 56 -92z m366 -5 c34 -49 71 -98 81 -109 19
-22 19 -22 -18 -29 -30 -5 -41 -3 -50 10 -10 14 -22 15 -69 10 -33 -5 -59 -13
-62 -21 -3 -8 -20 -14 -40 -14 -19 0 -33 4 -31 9 5 12 123 230 125 231 1 0 30
-39 64 -87z"/>
<path d="M2170 3660 c-9 -18 -8 -20 15 -20 27 0 28 1 19 24 -8 22 -21 20 -34
-4z"/>
<path d="M1829 3634 c-12 -34 -8 -37 26 -24 27 10 27 11 10 30 -23 25 -24 25
-36 -6z"/>
<path d="M1478 3549 c-25 -13 -35 -24 -32 -34 8 -19 18 -19 54 0 28 15 39 38
23 48 -5 3 -25 -4 -45 -14z"/>
<path d="M1523 3475 c-31 -13 -42 -33 -27 -48 10 -10 86 33 82 45 -6 18 -20
18 -55 3z"/>
<path d="M2315 3122 c6 -5 93 -58 195 -117 102 -59 188 -109 193 -112 4 -2 7
-2 7 0 0 3 -87 56 -192 117 -223 130 -216 126 -203 112z"/>
<path d="M2739 2873 c13 -10 43 -28 65 -41 23 -13 30 -15 17 -5 -13 10 -43 28
-65 41 -23 13 -30 15 -17 5z"/>
<path d="M2850 2806 c0 -3 9 -10 20 -16 11 -6 20 -8 20 -6 0 3 -9 10 -20 16
-11 6 -20 8 -20 6z"/>
<path d="M2900 2776 c0 -3 9 -10 20 -16 11 -6 20 -8 20 -6 0 3 -9 10 -20 16
-11 6 -20 8 -20 6z"/>
<path d="M1916 735 c-3 -9 1 -18 10 -22 19 -7 26 0 18 21 -8 20 -20 21 -28 1z"/>
<path d="M2287 698 c-8 -27 -6 -29 21 -21 18 4 20 9 11 24 -13 25 -25 24 -32
-3z"/>
</g>
</svg>
